# AST/ASF file generated using VICON BodyLanguage
# -----------------------------------------------
:version 1.10
:name VICON
:units
  mass 1.0
  length 0.45
  angle deg
:documentation
   .ast/.asf automatically generated from VICON data using
   VICON BodyBuilder and BodyLanguage model FoxedUp or BRILLIANT.MOD
:root
   order TX TY TZ RX RY RZ
   axis XYZ
   position 0 0 0  
   orientation 0 0 0 
:bonedata
  begin
     id 1 
     name lhipjoint
     direction 0.567725 -0.736092 0.368589 
     length 2.42353 
     axis 0 0 0  XYZ
  end
  begin
     id 2 
     name lfemur
     direction 0.34202 -0.939693 0  
     length 7.24894  
     axis 0 0 20  XYZ
    dof rx ry rz
    limits (-160.0 20.0)
           (-70.0 70.0)
           (-60.0 70.0)
  end
  begin
     id 3 
     name ltibia
     direction 0.34202 -0.939693 0   
     length 7.6997   
     axis 0 0 20   XYZ
    dof rx
    limits (-10.0 170.0)
  end
  begin
     id 4 
     name lfoot
     direction 0.100767 -0.276854 0.955614   
     length 2.37556   
     axis -90 7.62852e-016 20   XYZ
    dof rx rz
    limits (-45.0 90.0)
           (-70.0 20.0)
  end
  begin
     id 5 
     name ltoes
     direction 1.53592e-011 -4.21894e-011 1   
     length 1.18363   
     axis -90 7.62852e-016 20   XYZ
    dof rx
    limits (-90.0 20.0)
  end
  begin
     id 6 
     name rhipjoint
     direction -0.556459 -0.742938 0.372017   
     length 2.4012  
     axis 0 0 0  XYZ 
  end
  begin
     id 7 
     name rfemur
     direction -0.34202 -0.939693 0   
     length 7.5119   
     axis 0 0 -20   XYZ
    dof rx ry rz
    limits (-160.0 20.0)
           (-70.0 70.0)
           (-70.0 60.0)
  end
  begin
     id 8 
     name rtibia
     direction -0.34202 -0.939693 0   
     length 7.50155   
     axis 0 0 -20   XYZ
    dof rx
    limits (-10.0 170.0)
 end
 begin
     id 9 
     name rfoot
     direction -0.118427 -0.325376 0.938139   
     length 2.32487  
     axis -90 -7.62852e-016 -20   XYZ
    dof rx rz
    limits (-45.0 90.0)
           (-20.0 70.0)
  end
  begin
     id 10 
     name rtoes
     direction -1.53525e-011 -4.21868e-011 1   
     length 1.15233   
     axis -90 -7.62852e-016 -20   XYZ
    dof rx
    limits (-90.0 20.0)
  end
  begin
     id 11 
     name lowerback
     direction 0.0287568 0.999577 -0.00434502   
     length 2.15243   
     axis 0 0 0   XYZ
    dof rx ry rz
    limits (-20.0 45.0)
           (-30.0 30.0)
           (-30.0 30.0)
  end
  begin
     id 12 
     name upperback
     direction 0.0294009 0.99956 0.00404628   
     length 2.15427   
     axis 0 0 0   XYZ
    dof rx ry rz
    limits (-20.0 45.0)
           (-30.0 30.0)
           (-30.0 30.0)
  end
  begin
     id 13 
     name thorax
     direction 0.0151014 0.999868 0.0059419   
     length 2.14898   
     axis 0 0 0   XYZ
    dof rx ry rz
    limits (-20.0 45.0)
           (-30.0 30.0)
           (-30.0 30.0)
  end
  begin
     id 14 
     name lowerneck
     direction -0.0249197 0.989906 0.139515   
     length 1.6861   
     axis 0 0 0   XYZ
    dof rx ry rz
    limits (-20.0 45.0)
           (-30.0 30.0)
           (-30.0 30.0)
  end
  begin
     id 15 
     name upperneck
     direction 0.0438463 0.988795 -0.142693   
     length 1.71276   
     axis 0 0 0   XYZ
    dof rx ry rz
    limits (-20.0 45.0)
           (-30.0 30.0)
           (-30.0 30.0)
  end
  begin
     id 16
     name head
     direction 0.0148499 0.997845 -0.0639186  
     length 1.7209  
     axis 0 0 0   XYZ
    dof rx ry rz
    limits (-20.0 45.0)
           (-30.0 30.0)
           (-30.0 30.0)
  end
  begin
     id 17 
     name lclavicle
     direction 0.940298 0.323464 -0.105876  
     length 3.9048  
     axis 0 0 0   XYZ
    dof ry rz
    limits (-20.0 10.0)
           (0.0 20.0)
  end
  begin
     id 18 
     name lhumerus
     direction 1 -4.48954e-011 -4.9675e-028   
     length 4.6851   
     axis 180 -30 -90   XYZ
    dof rx ry rz
    limits (-60.0 90.0)
           (-90.0 90.0)
           (-90.0 90.0)
  end
  begin
     id 19
     name lradius
     direction 1 -4.48992e-011 -1.03359e-026   
     length 3.39626   
     axis 180 -30 -90   XYZ
    dof rx
    limits (-10.0 170.0)
  end
  begin
     id 20
     name lwrist
     direction 1 -4.48906e-011 -1.67336e-026   
     length 1.69813   
     axis 9.90442e-015 90 90   XYZ
    dof ry
    limits (-180.0 0.0)
 end
  begin
     id 21 
     name lhand
     direction 1 -4.49006e-011 -3.34673e-026   
     length 0.486078   
     axis 2.1355e-014 90 90   XYZ
    dof rx rz
    limits (-90.0 90.0)
           (-45.0 45.0)
  end
  begin
     id 22 
     name lfingers
     direction 1 -4.48992e-011 -6.69345e-026   
     length 0.391889   
     axis 4.27099e-014 90 90   XYZ
    dof rx
    limits (0.0 90.0)
  end
  begin
     id 23
     name lthumb
     direction 0.707107 -6.34926e-011 0.707107   
     length 0.562676   
     axis -90 45 2.85299e-015   XYZ
    dof rx rz
    limits (-45.0 45.0)
           (-45.0 45.0)
  end
  begin
     id 24 
     name rclavicle
     direction -0.882459 0.414895 -0.221648   
     length 3.44646  
     axis 0 0 0   XYZ 
    dof ry rz
    limits (-10.0 20.0)
           (-20.0 0.0)
  end
  begin
     id 25 
     name rhumerus
     direction -1 -4.48962e-011 -2.37984e-027  
     length 5.55576   
     axis 180 30 90   XYZ
    dof rx ry rz
    limits (-90.0 60.0)
           (-90.0 90.0)
           (-90.0 90.0)
  end
  begin
     id 26 
     name rradius
     direction -1 -4.48982e-011 -6.86791e-027   
     length 3.32774   
     axis 180 30 90   XYZ
    dof rx
    limits (-10.0 170.0)
  end
  begin
     id 27 
     name rwrist
     direction -1 -4.48961e-011 -1.67336e-026   
     length 1.66387   
     axis 9.90442e-015 -90 -90   XYZ
    dof ry
    limits (-180.0 0.0)
  end
  begin
     id 28
     name rhand
     direction -1 -4.4897e-011 -3.34673e-026   
     length 0.507628   
     axis 2.1355e-014 -90 -90   XYZ
    dof rx rz
    limits (-90.0 90.0)
           (-45.0 45.0)
  end
  begin
     id 29
     name rfingers
     direction -1 -4.48854e-011 -6.69345e-026   
     length 0.409263   
     axis 4.27099e-014 -90 -90   XYZ
    dof rx
    limits (0.0 90.0)
  end
  begin
     id 30
     name rthumb
     direction -0.707107 -6.34913e-011 0.707107   
     length 0.587622   
     axis -90 -45 -2.85299e-015   XYZ
    dof rx rz
    limits (-45.0 45.0)
           (-45.0 45.0)
  end
:hierarchy
  begin
    root lhipjoint rhipjoint lowerback
    lhipjoint lfemur
    lfemur ltibia
    ltibia lfoot
    lfoot ltoes
    rhipjoint rfemur
    rfemur rtibia
    rtibia rfoot
    rfoot rtoes
    lowerback upperback
    upperback thorax
    thorax lowerneck lclavicle rclavicle
    lowerneck upperneck
    upperneck head
    lclavicle lhumerus
    lhumerus lradius
    lradius lwrist
    lwrist lhand lthumb
    lhand lfingers
    rclavicle rhumerus
    rhumerus rradius
    rradius rwrist
    rwrist rhand rthumb
    rhand rfingers
  end

#!OML:ASF E:\motion texture\Top Level 1\Subject 1\Session 1\male.ASF
:FULLY-SPECIFIED
:DEGREES
43
root 39.5496 17.3602 4.39026 111.411 -81.3008 -99.1565
lowerback -1.78762 1.8196 6.25194
upperback -0.644254 2.23656 2.71474
thorax 0.472098 1.08781 -0.655747
lowerneck -19.6114 0.403101 -5.39465
upperneck 13.4051 1.14327 4.99345
head 7.25731 0.746875 2.65732
rclavicle -1.66482e-015 8.74653e-015
rhumerus -21.3636 11.7678 -84.8066
rradius 48.1277
rwrist 15.3329
rhand -16.8664 -24.5995
rfingers 7.12502
rthumb 9.36421 -54.3715
lclavicle -1.66482e-015 8.74653e-015
lhumerus -31.9677 13.7571 86.5829
lradius 47.4429
lwrist -15.599
lhand -13.8805 22.588
lfingers 7.12502
lthumb 12.2444 52.2096
rfemur -1.6728 2.75737 32.6696
rtibia 15.4067
rfoot -19.5764 -9.3099
rtoes 14.909
lfemur -39.7022 1.78108 -4.3344
ltibia 22.4779
lfoot -3.92145 9.12994
ltoes -11.4401
44
root 39.4426 17.3507 4.40016 111.506 -81.3083 -99.1812
lowerback -1.83019 1.86305 6.25489
upperback -0.674403 2.29364 2.66716
thorax 0.470172 1.11617 -0.703783
lowerneck -19.64 0.398428 -5.40596
upperneck 13.398 1.14147 4.99501
head 7.25977 0.745924 2.65972
rclavicle -9.93923e-017 -1.1778e-014
rhumerus -21.1281 12.1523 -84.8842
rradius 48.8077
rwrist 15.5402
rhand -16.984 -24.495
rfingers 7.12502
rthumb 9.25079 -54.2721
lclavicle -9.93923e-017 -1.1778e-014
lhumerus -31.8198 13.5124 86.764
lradius 47.7838
lwrist -15.4822
lhand -13.8955 22.6934
lfingers 7.12502
lthumb 12.2299 52.3158
rfemur -1.48692 2.7101 32.5856
rtibia 15.6154
rfoot -19.5855 -9.21491
rtoes 14.2441
lfemur -39.6153 1.52971 -4.22942
ltibia 21.6547
lfoot -3.65473 9.31527
ltoes -11.2753
45
root 39.333 17.3418 4.4109 111.575 -81.3185 -99.1874
lowerback -1.87078 1.90596 6.25284
upperback -0.703765 2.35021 2.62075
thorax 0.467768 1.14428 -0.747868
lowerneck -19.6691 0.391336 -5.41591
upperneck 13.3961 1.1356 4.99832
head 7.26428 0.74323 2.6621
rclavicle -1.20389e-014 -6.52014e-014
rhumerus -20.8978 12.5172 -84.9581
rradius 49.4852
rwrist 15.7511
rhand -17.1073 -24.3907
rfingers 7.12502
rthumb 9.13179 -54.173
lclavicle -1.20389e-014 -6.52014e-014
lhumerus -31.6671 13.2533 86.9536
lradius 48.1135
lwrist -15.3714
lhand -13.9105 22.805
lfingers 7.12502
lthumb 12.2154 52.4283
rfemur -1.31515 2.64967 32.4921
rtibia 15.874
rfoot -19.567 -9.11059
rtoes 13.521
lfemur -39.516 1.28198 -4.1427
ltibia 20.9122
lfoot -3.39809 9.48442
ltoes -11.1085
46
root 39.2211 17.3338 4.42247 111.602 -81.3339 -99.1585
lowerback -1.91048 1.94735 6.24413
upperback -0.733095 2.40495 2.57523
thorax 0.464564 1.17145 -0.787381
lowerneck -19.6983 0.381661 -5.4229
upperneck 13.3995 1.12538 5.00105
head 7.27082 0.738514 2.66341
rclavicle 7.47927e-015 -2.08724e-015
rhumerus -20.6736 12.8632 -85.029
rradius 50.1598
rwrist 15.9625
rhand -17.2386 -24.3028
rfingers 7.12502
rthumb 9.00514 -54.0905
lclavicle 7.47927e-015 -2.08724e-015
lhumerus -31.51 12.9786 87.1517
lradius 48.4316
lwrist -15.2658
lhand -13.9246 22.9189
lfingers 7.12502
lthumb 12.2018 52.543
rfemur -1.16294 2.57397 32.3866
rtibia 16.1862
rfoot -19.5169 -8.99747
rtoes 12.7366
lfemur -39.4088 1.03825 -4.07886
ltibia 20.2534
lfoot -3.14834 9.63537
ltoes -10.9386
47
root 39.1067 17.3266 4.43486 111.602 -81.3555 -99.1106
lowerback -1.949 1.98755 6.22705
upperback -0.761455 2.45837 2.5301
thorax 0.461327 1.19801 -0.821874
lowerneck -19.7282 0.369617 -5.42748
upperneck 13.4083 1.11106 5.00444
head 7.27949 0.731988 2.66416
rclavicle 8.98258e-015 -5.76476e-015
rhumerus -20.4563 13.1911 -85.0979
rradius 50.8312
rwrist 16.1751
rhand -17.3712 -24.2138
rfingers 7.12502
rthumb 8.87717 -54.007
lclavicle 8.98258e-015 -5.76476e-015
lhumerus -31.3485 12.6887 87.3579
lradius 48.7375
lwrist -15.1665
lhand -13.938 23.0361
lfingers 7.12502
lthumb 12.1889 52.6609
rfemur -1.03108 2.48437 32.2671
rtibia 16.5543
rfoot -19.4311 -8.87639
rtoes 11.8993
lfemur -39.2898 0.802618 -4.04171
ltibia 19.676
lfoot -2.90866 9.76388
ltoes -10.7579
